<?xml version="1.0" standalone="no"?><!DOCTYPE svg PUBLIC "-//W3C//DTD SVG 1.1//EN" "http://www.w3.org/Graphics/SVG/1.1/DTD/svg11.dtd"><svg t="1584154433239" class="icon" viewBox="0 0 1024 1024" version="1.1" xmlns="http://www.w3.org/2000/svg" p-id="8740" xmlns:xlink="http://www.w3.org/1999/xlink" width="200" height="200"><defs><style type="text/css"></style></defs><path d="M878.592 516.096c-9.728 0-19.456 2.048-28.16 5.12l-6.656-10.24-120.832-181.248c0-0.512 0.512-1.024 0.512-1.024 9.728-15.36 14.848-33.28 14.848-51.712 0-54.272-44.032-98.304-98.304-98.304s-98.304 44.032-98.304 98.304c0 20.992 7.168 40.448 18.432 56.832l6.144 7.68-128.512 236.032c-11.776-3.584-24.064-5.12-36.352-5.632-28.16 0-53.76 8.192-75.776 22.528L228.864 478.72 222.208 471.04c6.144-11.776 10.24-25.088 10.24-39.424 0-37.376-24.576-70.144-59.904-80.896-35.84-10.752-74.24 3.072-94.72 34.304-20.48 31.232-18.432 71.68 5.632 100.352 23.552 28.672 63.488 38.4 97.792 23.552l6.144 7.68 97.792 116.736c-15.872 23.04-24.064 50.688-24.064 78.848 0 77.312 62.976 140.288 140.288 140.288 77.312 0 140.288-62.976 140.288-140.288 0-44.544-21.504-83.968-53.76-109.568l125.952-231.424c8.192 2.048 16.896 4.096 26.112 4.096 14.336 0 27.648-3.072 39.936-8.704l119.296 178.688 7.68 11.264c-8.192 12.8-12.288 28.16-12.288 43.008 0 46.592 37.888 84.48 84.48 84.48s84.48-37.888 84.48-84.48-38.4-83.456-84.992-83.456zM147.456 461.312c-16.896 0-30.72-13.824-30.72-30.72s13.824-30.72 30.72-30.72 30.72 13.824 30.72 30.72-13.824 30.72-30.72 30.72z m253.44 335.36c-46.592 0-84.48-37.888-84.48-84.48s37.888-84.48 84.48-84.48 84.48 37.888 84.48 84.48-37.888 84.48-84.48 84.48zM640 230.912c20.992 0 38.4 17.408 38.4 38.4s-17.408 38.4-38.4 38.4-38.4-17.408-38.4-38.4 17.408-38.4 38.4-38.4z m237.056 399.36c-16.896 0-30.72-13.824-30.72-30.72s13.824-30.72 30.72-30.72 30.72 13.824 30.72 30.72-13.824 30.72-30.72 30.72z" p-id="8741" fill="#ffffff"></path><path d="M640 178.688c-54.272 0-98.304 44.032-98.304 98.304 0 20.992 7.168 40.448 18.432 56.832 18.944 23.04 47.616 38.4 79.872 38.4 34.304 0 65.024-17.408 83.456-43.52 9.728-15.36 14.848-33.28 14.848-51.712 0-54.272-44.032-98.304-98.304-98.304z m0 129.024c-20.992 0-38.4-17.408-38.4-38.4s17.408-38.4 38.4-38.4 38.4 17.408 38.4 38.4c0 21.504-17.408 38.4-38.4 38.4zM878.592 516.096c-9.728 0-19.456 2.048-28.16 5.12l-6.656-10.24c-17.92 6.656-33.28 18.944-44.544 34.304l7.68 11.264c-8.192 12.8-12.288 28.16-12.288 43.008 0 46.592 37.888 84.48 84.48 84.48s84.48-37.888 84.48-84.48-38.4-83.456-84.992-83.456z m-1.536 114.176c-16.896 0-30.72-13.824-30.72-30.72s13.824-30.72 30.72-30.72 30.72 13.824 30.72 30.72-13.824 30.72-30.72 30.72zM232.448 431.616c0-37.376-24.576-70.144-59.904-80.896-35.84-10.752-74.24 3.072-94.72 34.304-20.48 31.232-18.432 71.68 5.632 100.352 23.552 28.672 63.488 38.4 97.792 23.552l6.144 7.68c17.408-8.192 31.744-21.504 40.96-37.376L222.208 471.04c6.144-11.776 10.24-25.088 10.24-39.424z m-84.992 29.696c-16.896 0-30.72-13.824-30.72-30.72s13.824-30.72 30.72-30.72 30.72 13.824 30.72 30.72-13.824 30.72-30.72 30.72z" p-id="8742" fill="#ffffff"></path></svg>