<?xml version="1.0" standalone="no"?><!DOCTYPE svg PUBLIC "-//W3C//DTD SVG 1.1//EN" "http://www.w3.org/Graphics/SVG/1.1/DTD/svg11.dtd"><svg t="1584151778931" class="icon" viewBox="0 0 1024 1024" version="1.1" xmlns="http://www.w3.org/2000/svg" p-id="6744" xmlns:xlink="http://www.w3.org/1999/xlink" width="200" height="200"><defs><style type="text/css"></style></defs><path d="M1024.659627 129.706667a125.44 125.44 0 0 0-11.093334-44.373334 100.693333 100.693333 0 0 0-13.653333-24.746666A130.56 130.56 0 0 0 899.219627 0h-38.4a170.666667 170.666667 0 0 0-80.213334 50.346667v4.266666a138.24 138.24 0 0 0 21.333334 182.613334L693.566293 546.133333a128 128 0 0 0-65.706666 11.946667l-160.426667-162.133333c0-5.973333 0-11.093333 5.973333-17.066667a136.533333 136.533333 0 0 0-85.333333-164.693333 140.8 140.8 0 0 0-85.333333 0 141.653333 141.653333 0 0 0-74.24 53.76 134.826667 134.826667 0 0 0 11.093333 170.666666L130.366293 750.933333a157.013333 157.013333 0 0 0-35.84 6.826667 139.093333 139.093333 0 0 0-93.866666 102.4 141.653333 141.653333 0 0 0 0 27.306667 136.533333 136.533333 0 0 0 273.066666 0 140.8 140.8 0 0 0-42.666666-98.986667h-4.266667L333.459627 477.866667a137.386667 137.386667 0 0 0 55.466666-8.533334h5.12l162.133334 164.693334a235.52 235.52 0 0 0-6.826667 23.04 141.653333 141.653333 0 0 0-2.56 25.6 136.533333 136.533333 0 0 0 273.066667 0 125.44 125.44 0 0 0-11.093334-52.906667 108.373333 108.373333 0 0 0-23.893333-37.546667l110.08-319.146666h17.066667A138.24 138.24 0 0 0 1024.659627 129.706667z" p-id="6745" fill="#ffffff"></path></svg>