<?xml version="1.0" standalone="no"?><!DOCTYPE svg PUBLIC "-//W3C//DTD SVG 1.1//EN" "http://www.w3.org/Graphics/SVG/1.1/DTD/svg11.dtd"><svg t="1584871391176" class="icon" viewBox="0 0 1024 1024" version="1.1" xmlns="http://www.w3.org/2000/svg" p-id="1151" xmlns:xlink="http://www.w3.org/1999/xlink" width="200" height="200"><defs><style type="text/css"></style></defs><path d="M152.104233 424.670026c-49.507554 0-89.636506 40.128953-89.636506 89.636506s40.128953 89.636506 89.636506 89.636506 89.636506-40.128953 89.636506-89.636506S201.611787 424.670026 152.104233 424.670026L152.104233 424.670026zM510.649236 424.670026c-49.507554 0-89.635483 40.128953-89.635483 89.636506s40.127929 89.636506 89.635483 89.636506 89.636506-40.128953 89.636506-89.636506S560.15679 424.670026 510.649236 424.670026L510.649236 424.670026zM869.196285 424.670026c-49.507554 0-89.636506 40.128953-89.636506 89.636506s40.128953 89.636506 89.636506 89.636506c49.507554 0 89.636506-40.128953 89.636506-89.636506S918.703839 424.670026 869.196285 424.670026L869.196285 424.670026zM869.196285 424.670026" p-id="1152" fill="#ffffff"></path></svg>